<svg xmlns="http://www.w3.org/2000/svg" width="200" height="200" viewBox="0 0 200 200"><rect width="100%" height="100%" fill="#5A2E8D"/><path fill="#FFFFFF" d="m55.86 91.115-6.59 11.07v7h-3.35v-7l-6.59-11.07h2.96q.44 0 .7.21.25.21.43.54l3.3 6.03q.29.54.5 1.01.22.48.4.95.16-.47.37-.95.22-.47.49-1.01l3.29-6.03q.14-.28.41-.52.28-.23.7-.23zm14.47 0v2.76h-5.45v15.31h-3.36v-15.31h-5.45v-2.76zm17.35 9.01h6v7.31q-1.37 1.01-2.93 1.48t-3.33.47q-2.21 0-4.01-.69-1.79-.69-3.06-1.91-1.27-1.23-1.96-2.93-.68-1.7-.68-3.71 0-2.04.66-3.74t1.88-2.92q1.22-1.23 2.96-1.9 1.73-.68 3.9-.68 1.1 0 2.05.18.96.17 1.78.48t1.49.74q.68.44 1.24.97l-.96 1.52q-.23.36-.59.45-.36.08-.79-.19-.41-.23-.82-.47-.42-.24-.92-.41-.51-.18-1.14-.29t-1.46-.11q-1.33 0-2.42.45-1.08.45-1.84 1.28-.76.84-1.17 2.02-.42 1.17-.42 2.62 0 1.55.45 2.77.44 1.22 1.25 2.06.8.85 1.94 1.29t2.54.44q1 0 1.79-.21.78-.21 1.53-.57v-3.28h-2.27q-.33 0-.51-.18t-.18-.44zm11.49-2.99.19 1.45q.6-1.15 1.42-1.81.83-.65 1.95-.65.89 0 1.43.38l-.2 2.32q-.07.22-.19.32-.11.09-.31.09-.19 0-.56-.06-.37-.07-.72-.07-.51 0-.91.15t-.72.44q-.32.28-.56.68-.25.4-.46.91v7.9h-3.09v-12.83h1.82q.47 0 .66.17t.25.61m12.27-.98q1.43 0 2.6.47 1.17.46 2 1.31t1.28 2.07q.45 1.23.45 2.74 0 1.53-.45 2.75-.45 1.23-1.28 2.09t-2 1.32q-1.17.47-2.6.47t-2.61-.47q-1.17-.46-2.01-1.32-.83-.86-1.28-2.09-.46-1.22-.46-2.75 0-1.51.46-2.74.45-1.22 1.28-2.07.84-.85 2.01-1.31 1.18-.47 2.61-.47m0 10.84q1.6 0 2.37-1.07.77-1.08.77-3.15 0-2.08-.77-3.17-.77-1.08-2.37-1.08-1.62 0-2.4 1.09-.78 1.1-.78 3.16t.78 3.14 2.4 1.08m24.65-10.64h2.35l-4.07 12.83h-2.48q-.42 0-.58-.55l-2.3-7.41q-.12-.38-.21-.75t-.16-.74q-.07.37-.17.76-.09.38-.2.75l-2.34 7.39q-.15.55-.66.55h-2.38l-4.06-12.83h2.46q.34 0 .58.17.24.16.31.41l1.84 6.85q.14.56.24 1.1.11.54.18 1.07.14-.53.3-1.07.15-.54.33-1.1l2.12-6.88q.08-.25.3-.41t.53-.16h1.36q.33 0 .56.16t.3.41l2.07 6.88q.16.56.3 1.11.15.54.28 1.08.17-1.07.47-2.19l1.88-6.85q.09-.25.32-.41.22-.17.53-.17m8.38 13.03q-1.68 0-2.57-.94-.89-.95-.89-2.61v-7.16h-1.32q-.25 0-.42-.17-.18-.16-.18-.48v-1.23l2.07-.34.65-3.5q.06-.25.23-.38.18-.14.45-.14h1.6v4.04h3.43v2.2h-3.43v6.95q0 .6.3.93.29.34.8.34.29 0 .48-.07.2-.07.34-.14l.26-.14q.11-.07.22-.07.14 0 .23.07.09.06.19.2l.92 1.5q-.67.56-1.55.85-.87.29-1.81.29m8.11-18.77v7.12q.75-.7 1.65-1.14t2.11-.44q1.05 0 1.87.36.81.36 1.35 1 .55.64.83 1.54.28.89.28 1.97v8.16h-3.09v-8.16q0-1.18-.54-1.82-.53-.65-1.63-.65-.8 0-1.5.37-.7.36-1.33.98v9.28h-3.09v-18.57z"/></svg>